<svg xmlns="http://www.w3.org/2000/svg" viewBox="0 0 115.01 115.01"><defs><style>.cls-1{fill:#fff;}.cls-2{fill:#bcbec0;}.cls-3{fill:#414042;}</style></defs><g id="Layer_2" data-name="Layer 2"><g id="Layer_1-2" data-name="Layer 1"><path class="cls-1" d="M57.5,0A57.51,57.51,0,1,0,115,57.5,57.51,57.51,0,0,0,57.5,0"/><path class="cls-2" d="M74.93,86.79a3,3,0,0,0,1.43-.36,3.3,3.3,0,0,0,.43-.3L88.21,98.62a1.76,1.76,0,0,0-.34,1.69l-16.35,7.74A2.43,2.43,0,0,0,70,107l4.38-20.2a3.08,3.08,0,0,0,.53,0m-8,22.32-20.29-.2a1.81,1.81,0,0,0-.2-.78L72.68,85.81a2.88,2.88,0,0,0,1.31.84l-4.38,20.23h-.2a2.38,2.38,0,0,0-1.18.3A2.45,2.45,0,0,0,67,109.11M49.64,86.56a1.74,1.74,0,0,0,1.73-1.62L71.9,84a3.13,3.13,0,0,0,.36,1.21l.16.24L46.23,107.79a1.79,1.79,0,0,0-.67-.46l3.95-20.78h.13M33.88,74A2.88,2.88,0,0,0,36,73.09L48.2,83.82a1.73,1.73,0,0,0,.9,2.65l-4,20.75h-.24a1.65,1.65,0,0,0-.83.21,1.81,1.81,0,0,0-.64.62l-18-9.53a3,3,0,0,0,0-2.84,3,3,0,0,0-1.28-1.23L32.88,73.8a3.09,3.09,0,0,0,1,.17M21.26,94.53,9.37,75.06a1.71,1.71,0,0,0,.57-1.35l21-2.22a3,3,0,0,0,1.59,2.16L23.75,94.28a3.36,3.36,0,0,0-1-.16,2.93,2.93,0,0,0-1.43.37l-.07,0m30.09-10a1.93,1.93,0,0,0-.18-.56l-.05-.06L72.64,66.79a1.78,1.78,0,0,0,1.11.5l.73,13.52a3,3,0,0,0-1,.34,3,3,0,0,0-1.55,2.46l-20.55.91M88.52,98.34,77.09,85.84a3,3,0,0,0-2.19-5l-.74-13.53a1.62,1.62,0,0,0,.55-.18,1.73,1.73,0,0,0,.6-.57l27.05,13.66a2.47,2.47,0,0,0,.13,2.07,2.51,2.51,0,0,0,.5.61L90.46,98.29a1.78,1.78,0,0,0-.94-.28,1.64,1.64,0,0,0-.83.22l-.17.11m14-18.54-27-13.66a1.8,1.8,0,0,0,.1-.65l32.67-5a3,3,0,0,0,.15.38,1.82,1.82,0,0,0,.91.78l-4.25,17a2.18,2.18,0,0,0-.44,0,2.35,2.35,0,0,0-1.17.3,2.49,2.49,0,0,0-.93.92M55.88,48.42a1.72,1.72,0,0,0,.84-.21l.19-.14,15.6,16.37a1.74,1.74,0,0,0-.18,2l0,.07L50.86,83.57a1.77,1.77,0,0,0-1.24-.51,1.66,1.66,0,0,0-.83.22,1.24,1.24,0,0,0-.32.23L36.25,72.79a3,3,0,0,0,.24-3.28,3,3,0,0,0-.47-.63L54.86,48.1a1.79,1.79,0,0,0,1,.32m-46,24.87a2.87,2.87,0,0,0-.15-.37A1.75,1.75,0,0,0,8.36,72L6.91,52.68a2.6,2.6,0,0,0,.86-.3,3,3,0,0,0,1.55-2.66l15.86-3.24a2.76,2.76,0,0,0,.26.65,3,3,0,0,0,2.63,1.55,2.49,2.49,0,0,0,.47,0L33,68.08a3.23,3.23,0,0,0-.58.24,3,3,0,0,0-1.54,2.75l-21,2.22M33.39,68,29,48.56a2.67,2.67,0,0,0,.58-.25A3,3,0,0,0,31.07,46l23.06.83a1.77,1.77,0,0,0,.21.7,1.61,1.61,0,0,0,.21.3L35.72,68.6A3,3,0,0,0,33.86,68a2.56,2.56,0,0,0-.47,0M88,53.79a3,3,0,0,0,2.91-3.61l14.82-7.06a1.74,1.74,0,0,0,1.47.81h.06l2.21,14.36A1.72,1.72,0,0,0,108.21,60l-32.67,5a1.37,1.37,0,0,0-.15-.38l-.16-.23L86.42,53.34a3.09,3.09,0,0,0,1.6.45M72.82,64.15,57.22,47.79a1.75,1.75,0,0,0,.18-2l0-.07L71.42,34.51a3,3,0,0,0,3.6.54l.21-.14,10.69,13.7a3,3,0,0,0-.57,3.63,3.17,3.17,0,0,0,.72.86L74.94,64.17a1.76,1.76,0,0,0-1.08-.37A1.67,1.67,0,0,0,73,64l-.2.13M14.74,30.44a1.76,1.76,0,0,0,.83-.21l.06-.05L26.06,43.45a3,3,0,0,0-1,2.62L9.29,49.3a3.15,3.15,0,0,0-.33-1,3,3,0,0,0-1.11-1.13L14.3,30.39a2.12,2.12,0,0,0,.44.05m31.57-.59a2.79,2.79,0,0,0,1.37-.35,2.89,2.89,0,0,0,1.38-1.74L70.57,32.1a3,3,0,0,0,.35,1.77,2.62,2.62,0,0,0,.23.32L57.09,45.43a1.78,1.78,0,0,0-1.23-.5,1.72,1.72,0,0,0-1.71,1.48l-23.08-.84a2.87,2.87,0,0,0-.36-1.35,3,3,0,0,0-.39-.55L44.46,29.18a2.92,2.92,0,0,0,1.85.67m49.63-4.46A2.49,2.49,0,0,0,97,25.13l9.14,15.67a1.76,1.76,0,0,0-.61,2l-14.74,7a2.44,2.44,0,0,0-.19-.44,3,3,0,0,0-1.32-1.25l6.21-22.73a3,3,0,0,0,.42,0m-9.69,23L75.56,34.66a3,3,0,0,0,.87-3.15l17.31-7.43,0,0a2.47,2.47,0,0,0,1.35,1.14L88.92,47.93a3,3,0,0,0-1-.16,2.93,2.93,0,0,0-1.43.37,2.11,2.11,0,0,0-.29.2M26.39,43.2,16,29.93a1.77,1.77,0,0,0,.3-2.08l-.11-.16L31.08,14.22a2.49,2.49,0,0,0,1.7.68A2.42,2.42,0,0,0,34,14.59a1.81,1.81,0,0,0,.32-.22l9.93,10.68a2.85,2.85,0,0,0-.42,3.32,3.25,3.25,0,0,0,.37.52L30,43.38a3.08,3.08,0,0,0-2-.72,2.9,2.9,0,0,0-1.44.38l-.23.16m52.23-31a1.83,1.83,0,0,0,.84-.21,1.92,1.92,0,0,0,.44-.36l13.93,10a2.48,2.48,0,0,0-.25,2.08L76.27,31.12,76.2,31a2.94,2.94,0,0,0-1.71-1.4L78.43,12.2h.19M44.51,24.76,34.59,14.08a2.53,2.53,0,0,0,.62-2l21-5a3,3,0,0,0,.24.56,2.88,2.88,0,0,0,.82.94l-9.7,15.85a2.87,2.87,0,0,0-2.69,0,3,3,0,0,0-.41.28M59.14,9.22a3,3,0,0,0,1.44-.37A3,3,0,0,0,62,7.09L76.87,10.3A1.74,1.74,0,0,0,78,12.11l-4,17.35a3.41,3.41,0,0,0-.55-.05,2.91,2.91,0,0,0-1.42.36,3,3,0,0,0-1.46,1.92L49.13,27.35a2.82,2.82,0,0,0-.32-1.74,2.75,2.75,0,0,0-.85-.94l9.7-15.84a3.06,3.06,0,0,0,1.48.39m0-6a2.94,2.94,0,0,0-1.45.38,3,3,0,0,0-1.51,3.12l-21,5a1.78,1.78,0,0,0-.18-.43,2.47,2.47,0,1,0-4.33,2.39,3.13,3.13,0,0,0,.2.3L15.87,27.38A1.75,1.75,0,0,0,14.72,27a1.8,1.8,0,0,0-.84.21,1.75,1.75,0,0,0,0,3.08L7.48,47a3,3,0,0,0-1.19-.24,3,3,0,0,0-1.43.36,3,3,0,0,0,1.46,5.65H6.5L8,72a1.85,1.85,0,0,0-.59.19A1.75,1.75,0,0,0,9,75.3L20.92,94.77a3,3,0,1,0,4.31,4.09l18,9.55a1.74,1.74,0,0,0,.12,1.39,1.77,1.77,0,0,0,1.54.9,1.83,1.83,0,0,0,.84-.21,1.78,1.78,0,0,0,.86-1.17l20.33.2a2.44,2.44,0,0,0,.29,1,2.48,2.48,0,0,0,2.18,1.28,2.45,2.45,0,0,0,1.19-.3,2.48,2.48,0,0,0,1.09-3.09l16.34-7.73a1.77,1.77,0,0,0,1.49.82,1.66,1.66,0,0,0,.83-.22,1.74,1.74,0,0,0,.69-2.37,1.44,1.44,0,0,0-.28-.37l12.54-15.44a2.47,2.47,0,0,0,2.54.11,2.49,2.49,0,0,0,1-3.37,2.45,2.45,0,0,0-1.35-1.13l4.26-17,.23,0a1.69,1.69,0,0,0,.83-.22,1.74,1.74,0,0,0-.85-3.27h0l-2.21-14.36a1.69,1.69,0,0,0,.37-.15,1.74,1.74,0,0,0-.84-3.27,1.67,1.67,0,0,0-.69.14L97.38,24.91a2.47,2.47,0,0,0-2.65-4.16,2.43,2.43,0,0,0-.65.54l-13.94-10a1.74,1.74,0,0,0-1.53-2.58,1.77,1.77,0,0,0-.84.21,1.75,1.75,0,0,0-.81,1L62.09,6.68a3,3,0,0,0-3-3.49"/><path class="cls-3" d="M11.47,44.94h7.1c7.67,0,12.61,3.82,12.61,12.46s-4.94,12.67-12.3,12.67H11.47Zm6.75,20.55c4.26,0,7.14-2.09,7.14-8.09s-2.88-7.88-7.14-7.88H17.15v16Z"/><path class="cls-3" d="M35,58.42V44.94h5.68V59c0,4.92,1.55,6.62,4.36,6.62s4.45-1.7,4.45-6.62V44.94H55V58.42c0,8.44-3.43,12.11-9.93,12.11S35,66.86,35,58.42Z"/><path class="cls-3" d="M58.84,57.4c0-8.21,4.64-12.92,11.41-12.92S81.66,49.22,81.66,57.4,77,70.53,70.25,70.53,58.84,65.6,58.84,57.4Zm17,0c0-5-2.16-8-5.59-8s-5.59,3-5.59,8,2.17,8.22,5.59,8.22S75.84,62.43,75.84,57.4Z"/><path class="cls-3" d="M84.77,66.9,88,63a10,10,0,0,0,6.18,2.62c2.37,0,3.53-.93,3.53-2.42s-1.43-2.09-3.63-3l-3.26-1.39c-2.6-1.06-5.07-3.2-5.07-6.85,0-4.16,3.72-7.49,9-7.49a11.62,11.62,0,0,1,8.08,3.29l-2.87,3.58a8.17,8.17,0,0,0-5.21-2c-2,0-3.21.82-3.21,2.26s1.65,2.1,3.84,3l3.2,1.3c3.07,1.24,5,3.28,5,6.83,0,4.17-3.47,7.79-9.46,7.79A13.88,13.88,0,0,1,84.77,66.9Z"/></g></g></svg>